<?xml version="1.0"?><svg width="1056" height="816" xmlns="http://www.w3.org/2000/svg">

 <g>
  <title>Layer 1</title>
  <path stroke="#000000" stroke-width="7.540623" stroke-miterlimit="4" marker-start="none" id="path48999" d="m501.041809,395.458374c40.115479,-55.305237 48.782471,-95.725983 62.369141,-91.857697c10.620056,3.023651 5.516052,12.112915 33.582275,18.525757c26.948303,6.15744 54.481079,-15.966675 60.201111,-42.659454c7.619019,-26.162766 -4.730286,-59.046936 -32.358215,-67.164856c-27.34082,-9.895004 -59.929504,6.188614 -69.657532,33.419342c-14.095703,31.130249 -21.324036,72.244385 -66.880188,107.532837l-34.96698,27.085602l-121.008514,170.839905c-13.530396,22.087708 -21.654144,51.471924 -4.111694,79.445068l172.830597,-235.166504zm129.819824,-103.115906c-23.305542,23.249695 -64.53363,9.070587 -64.463074,-21.965057c-1.650391,-28.553543 33.054749,-54.558456 58.852051,-38.259766c21.720947,11.428009 21.565186,44.308746 5.611023,60.224823z"/>
  <path stroke="#000000" stroke-width="7.540623" stroke-miterlimit="4" marker-start="none" id="path49000" d="m439.22937,396.966248c-39.992706,-55.394562 -48.569183,-95.834473 -62.164185,-91.99646c-10.626709,3 -5.54306,12.100342 -33.624084,18.450867c-26.961609,6.097382 -54.445038,-16.088074 -60.105835,-42.79361c-7.560211,-26.179382 4.862305,-59.036224 32.508118,-67.092438c27.362915,-9.834091 59.91571,6.322037 69.582642,33.574509c14.02652,31.161331 21.162994,72.291733 66.640778,107.681381l34.906708,27.163788l120.627075,171.10907c13.481201,22.117859 21.539795,51.520081 3.934998,79.454041l-172.306213,-235.551147zm-129.589539,-103.405029c23.253632,23.301575 64.513123,9.214386 64.511536,-21.821289c1.714417,-28.549789 -32.933014,-54.631989 -58.766357,-38.390945c-21.746307,11.379639 -21.664001,44.260635 -5.745178,60.212234z"/>
 </g>
</svg>